<svg width="58" height="19" viewBox="0 0 58 19" fill="none" xmlns="http://www.w3.org/2000/svg"><path d="M5.6608 15.1013C8.78819 15.1013 11.3228 12.5661 11.3228 9.43932C11.3228 6.31252 8.78761 3.77734 5.6608 3.77734C2.54163 3.77734 0.0128929 6.29961 0 9.41591V9.46336C0.0128929 12.579 2.54163 15.1013 5.6608 15.1013Z" fill="#ED1E7F"></path><path d="M51.7242 15.1003C54.8513 15.1003 57.3862 12.5654 57.3862 9.43834C57.3862 6.31129 54.8513 3.77637 51.7242 3.77637C48.5973 3.77637 46.0623 6.31129 46.0623 9.43834C46.0623 12.5654 48.5973 15.1003 51.7242 15.1003Z" fill="#4CB85D"></path><path d="M22.3664 18.649C24.0534 18.649 25.6185 18.1287 26.916 17.2443V18.5165H30.4663V10.5929C30.4663 10.576 30.4681 10.5595 30.4681 10.5426V8.33014C30.4681 5.82014 32.5094 3.7788 35.0194 3.7788C37.5347 3.7788 39.5707 5.82014 39.5707 8.33014V18.5165H43.1258V8.33014C43.1258 3.85724 39.4976 0.228516 35.0194 0.228516C33.3318 0.228516 31.7649 0.749164 30.4669 1.63433V0.359088H26.9166V10.5742C26.8995 13.0742 24.8664 15.0939 22.3669 15.0939C19.8523 15.0939 17.8156 13.0579 17.8156 10.5426V0.360859H14.2606V10.5426C14.26 15.0208 17.8882 18.649 22.3664 18.649Z" fill="white"></path></svg>